<svg aria-hidden="true" style="position: absolute; width: 0; height: 0; overflow: hidden;" version="1.1" xmlns="http://www.w3.org/2000/svg" xmlns:xlink="http://www.w3.org/1999/xlink">
<defs>
<symbol id="icon-arrow" viewBox="0 0 26 32">
<path stroke-linejoin="miter" stroke-linecap="butt" stroke-miterlimit="4" stroke-width="2" d="M14.054 26.332c0.574-0.624 1.27-1.35 2.054-2.112 2.272-2.208 5.382-4.82 8.562-6.144l0.77 1.848c-2.82 1.174-5.71 3.564-7.94 5.73-1.247 1.218-2.424 2.488-3.536 3.814l-0.066 0.080-0.048 0.060-0.012 0.014-0.002 0.002-0.78 0.976-0.782-0.976-0.004-0.002-0.010-0.014-0.048-0.060c-0.357-0.431-0.664-0.788-0.976-1.14l0.038 0.044c-0.883-0.996-1.753-1.908-2.655-2.787l-0.011-0.011c-2.228-2.166-5.118-4.554-7.938-5.73l0.77-1.848c3.18 1.326 6.29 3.936 8.56 6.144 0.786 0.762 1.48 1.488 2.054 2.112v-25.332h2v25.332z"></path>
</symbol>
</defs>
</svg>
