<svg xmlns="http://www.w3.org/2000/svg" aria-hidden="true" style="position:absolute;width:0;height:0;overflow:hidden"><defs><symbol id="icon-logo" viewBox="0 0 92 32"><path d="M89.395 12.8c-1.453 1.453-3.24 2.18-5.362 2.18s-3.92-.727-5.397-2.18c-1.453-1.453-2.18-3.229-2.18-5.328 0-2.098.727-3.863 2.18-5.293C80.112.726 81.911 0 84.033 0s3.909.726 5.362 2.18c1.476 1.43 2.214 3.194 2.214 5.292 0 2.099-.738 3.875-2.214 5.328zm-9.583-9.583c-1.107 1.13-1.66 2.549-1.66 4.255 0 1.707.553 3.137 1.66 4.29 1.13 1.13 2.537 1.695 4.22 1.695 1.684 0 3.08-.565 4.187-1.695 1.13-1.153 1.695-2.583 1.695-4.29s-.565-3.125-1.695-4.255c-1.107-1.13-2.502-1.695-4.186-1.695s-3.09.565-4.22 1.695zm1.557 7.68V3.805h3.529c.738 0 1.337.196 1.799.588.46.393.691.9.691 1.523 0 .438-.138.818-.415 1.141-.276.323-.645.53-1.107.623.738.161 1.13.646 1.177 1.453l.069 1.003c.046.438.092.692.138.761h-1.66c-.047-.069-.093-.3-.139-.692l-.069-.968c-.046-.623-.346-.934-.9-.934H83.03v2.594h-1.66zm1.66-3.701h1.557c.738 0 1.107-.381 1.107-1.142 0-.3-.103-.542-.31-.727-.209-.184-.474-.276-.797-.276H83.03v2.145zm-26.286 20.03c2.698.692 4.543.023 5.535-2.007l.276-.623-7.16-17.227h5.673l4.428 11.243 4.117-11.243h5.396l-7.091 17.643c-1.107 2.813-2.641 4.774-4.601 5.88-1.96 1.13-4.152 1.396-6.573.796v-4.462z"/><path d="M47.606 25.565c-2.675 0-4.878-.888-6.607-2.664s-2.595-4.024-2.595-6.746c0-2.744.865-5.004 2.595-6.78s3.92-2.664 6.572-2.664c2.976 0 5.282 1.096 6.92 3.287 1.637 2.168 2.225 4.785 1.764 7.853H43.8c.092 1.037.496 1.89 1.21 2.56.715.668 1.603 1.003 2.664 1.003.854 0 1.626-.22 2.318-.658.692-.46 1.165-1.049 1.418-1.764l4.532.657c-.346 1.684-1.291 3.09-2.837 4.22-1.522 1.13-3.355 1.696-5.5 1.696zm-3.77-11.693H51.1c0-.876-.334-1.626-1.003-2.248s-1.51-.934-2.526-.934c-.991 0-1.833.3-2.525.899-.669.576-1.072 1.338-1.21 2.283zM28.175 25.427c-2.721 0-4.97-.865-6.746-2.595-1.752-1.753-2.629-3.978-2.629-6.677 0-2.721.877-4.947 2.63-6.676 1.775-1.753 4.024-2.63 6.745-2.63 2.745 0 4.993.877 6.746 2.63 1.776 1.73 2.664 3.955 2.664 6.676 0 2.699-.888 4.924-2.664 6.677-1.753 1.73-4.001 2.595-6.746 2.595zM25.27 12.696c-.738.9-1.107 2.053-1.107 3.46 0 1.406.37 2.56 1.107 3.459.762.876 1.73 1.314 2.906 1.314 1.2 0 2.168-.438 2.906-1.314.761-.9 1.142-2.053 1.142-3.46s-.38-2.56-1.142-3.459c-.738-.9-1.706-1.35-2.906-1.35-1.176 0-2.145.45-2.906 1.35zM8.58 25.392c-2.538 0-4.602-.784-6.193-2.352C.796 21.47 0 19.43 0 16.917l5.327-.346c0 1.199.289 2.133.865 2.802.6.668 1.407 1.003 2.422 1.003.992 0 1.776-.323 2.352-.969.577-.645.865-1.533.865-2.663V.692h5.604v16.052c0 2.583-.818 4.67-2.456 6.261s-3.77 2.387-6.4 2.387z"/></symbol></defs></svg>